HIERARCHY
ROOT Hips
{
	OFFSET -0.001795 -0.223333 0.028219
	CHANNELS 6 Xposition Yposition Zposition Zrotation Yrotation Xrotation 
	JOINT LeftUpLeg
	{
		OFFSET 0.069520 -0.091406 -0.006815
		CHANNELS 3 Zrotation Yrotation Xrotation
		JOINT LeftLeg
		{
			OFFSET 0.034277 -0.375199 -0.004496
			CHANNELS 3 Zrotation Yrotation Xrotation
			JOINT LeftFoot
			{
				OFFSET -0.013596 -0.397961 -0.043693
				CHANNELS 3 Zrotation Yrotation Xrotation
				JOINT LeftToe
				{
					OFFSET 0.026358 -0.055791 0.119288
					CHANNELS 3 Zrotation Yrotation Xrotation
					End Site
					{
						OFFSET 0.000000 0.000000 0.000000
					}
				}
			}
		}
	}
	JOINT RightUpLeg
	{
		OFFSET -0.067670 -0.090522 -0.004320
		CHANNELS 3 Zrotation Yrotation Xrotation
		JOINT RightLeg
		{
			OFFSET -0.038290 -0.382569 -0.008850
			CHANNELS 3 Zrotation Yrotation Xrotation
			JOINT RightFoot
			{
				OFFSET 0.015774 -0.398415 -0.042312
				CHANNELS 3 Zrotation Yrotation Xrotation
				JOINT RightToe
				{
					OFFSET -0.025372 -0.048144 0.123348
					CHANNELS 3 Zrotation Yrotation Xrotation
					End Site
					{
						OFFSET 0.000000 0.000000 0.000000
					}
				}
			}
		}
	}
	JOINT Spine
	{
		OFFSET -0.002533 0.108963 -0.026696
		CHANNELS 3 Zrotation Yrotation Xrotation
		JOINT Spine1
		{
			OFFSET 0.005487 0.135180 0.001092
			CHANNELS 3 Zrotation Yrotation Xrotation
			JOINT Spine2
			{
				OFFSET 0.001457 0.052922 0.025425
				CHANNELS 3 Zrotation Yrotation Xrotation
				JOINT Neck
				{
					OFFSET -0.002778 0.213870 -0.042857
					CHANNELS 3 Zrotation Yrotation Xrotation
					JOINT Head
					{
						OFFSET 0.005152 0.064970 0.051349
						CHANNELS 3 Zrotation Yrotation Xrotation
						End Site
						{
							OFFSET 0.000000 0.000000 0.000000
						}
					}
				}
				JOINT LeftShoulder
				{
					OFFSET 0.078845 0.121749 -0.034090
					CHANNELS 3 Zrotation Yrotation Xrotation
					JOINT LeftArm
					{
						OFFSET 0.090977 0.030469 -0.008868
						CHANNELS 3 Zrotation Yrotation Xrotation
						JOINT LeftForeArm
						{
							OFFSET 0.259612 -0.012772 -0.027456
							CHANNELS 3 Zrotation Yrotation Xrotation
							JOINT LeftHand
							{
								OFFSET 0.249234 0.008986 -0.001171
								CHANNELS 3 Zrotation Yrotation Xrotation
								End Site
								{
									OFFSET 0.000000 0.000000 0.000000
								}
							}
						}
					}
				}
				JOINT RightShoulder
				{
					OFFSET -0.081759 0.118833 -0.038615
					CHANNELS 3 Zrotation Yrotation Xrotation
					JOINT RightArm
					{
						OFFSET -0.096012 0.032551 -0.009143
						CHANNELS 3 Zrotation Yrotation Xrotation
						JOINT RightForeArm
						{
							OFFSET -0.253742 -0.013329 -0.021401
							CHANNELS 3 Zrotation Yrotation Xrotation
							JOINT RightHand
							{
								OFFSET -0.255298 0.007772 -0.005559
								CHANNELS 3 Zrotation Yrotation Xrotation
								End Site
								{
									OFFSET 0.000000 0.000000 0.000000
								}
							}
						}
					}
				}
			}
		}
	}
}
MOTION
Frames: 13
Frame Time: 0.050000
0.022241 0.959801 -0.038024 0.499761 0.650812 14.857207 7.107634 -0.806487 -16.239729 3.550719 -0.388201 0.324231 -6.571611 -3.868488 17.255079 0.000000 0.000000 0.000000 -5.039986 1.188386 -16.376620 -9.415250 0.396892 -4.467245 6.498884 1.833958 24.301658 0.000000 0.000000 0.000000 2.657579 -0.859842 10.703080 -1.010429 0.531919 -4.204442 -10.787169 9.604471 4.722083 19.770256 -8.869329 -19.292938 0.000000 0.000000 0.000000 -0.450072 -22.925687 7.285824 -55.990058 -32.357419 7.842162 -1.506808 -19.572943 0.724299 0.000000 0.000000 0.000000 0.975810 10.706790 4.501695 68.800035 22.007302 9.571870 0.939997 32.414019 1.914249 0.000000 0.000000 0.000000 
0.022864 0.959792 -0.038242 0.247989 0.290613 14.661307 7.378988 -0.767709 -16.412587 3.430280 -0.431459 1.166740 -6.332449 -3.712601 16.923504 0.000000 0.000000 0.000000 -4.762661 1.215157 -16.260549 -9.564027 0.416332 -4.364059 6.823510 2.357016 24.052664 0.000000 0.000000 0.000000 2.615201 -0.829850 10.419079 -1.283930 0.633990 -3.670888 -10.635958 9.723048 3.821797 20.323624 -9.219918 -19.151397 0.000000 0.000000 0.000000 -0.827204 -22.314209 7.067507 -55.375403 -30.667215 7.049057 -1.296933 -20.422466 0.687762 0.000000 0.000000 0.000000 1.396489 10.737962 4.572678 68.524108 22.056424 9.552277 0.681552 32.924243 1.887403 0.000000 0.000000 0.000000 
0.023605 0.959097 -0.038354 -0.084451 -0.226773 14.481405 7.689938 -0.713436 -16.395628 3.161756 -0.445761 1.863455 -5.615920 -3.040560 16.113272 0.000000 0.000000 0.000000 -4.421246 1.269592 -16.460890 -9.478480 0.442921 -4.079739 6.857779 2.229235 24.176355 0.000000 0.000000 0.000000 2.474212 -0.807803 10.494576 -1.136393 0.575611 -4.059951 -10.526693 10.261747 3.699434 20.558865 -9.363071 -19.114325 0.000000 0.000000 0.000000 -1.186540 -21.439093 6.740034 -54.866131 -29.532640 6.440750 -1.209909 -21.718203 0.672283 0.000000 0.000000 0.000000 1.805082 10.461315 4.533878 68.279855 22.213373 9.604877 0.839100 34.517401 2.103432 0.000000 0.000000 0.000000 
0.024332 0.958486 -0.038502 -0.524800 -0.953902 14.255508 8.043781 -0.641711 -16.161023 3.167581 -0.480823 2.390150 -5.106102 -2.684829 15.348666 0.000000 0.000000 0.000000 -4.062081 1.346286 -16.859578 -9.218122 0.485768 -3.540604 7.013252 2.155418 24.497224 0.000000 0.000000 0.000000 2.490357 -0.799140 10.428310 -1.212902 0.595691 -3.512427 -10.009841 10.031586 2.765832 20.838837 -9.618428 -18.863332 0.000000 0.000000 0.000000 -1.104789 -20.774934 6.555566 -55.238114 -28.554677 6.164451 -1.251082 -22.753394 0.708209 0.000000 0.000000 0.000000 1.851014 10.531709 4.523253 68.890007 22.862295 10.146408 0.585076 35.743002 2.106208 0.000000 0.000000 0.000000 
0.025051 0.957308 -0.038636 -0.948588 -1.949572 14.080695 8.569992 -0.543508 -16.072135 3.067020 -0.503408 2.948940 -4.923413 -2.658518 15.096399 0.000000 0.000000 0.000000 -3.820150 1.416469 -17.177465 -8.925786 0.530921 -2.919176 7.361212 2.787902 23.797218 0.000000 0.000000 0.000000 2.427084 -0.781136 10.449856 -1.161524 0.570520 -3.722874 -9.563392 10.271213 2.152819 20.315265 -9.243889 -18.956457 0.000000 0.000000 0.000000 -1.784153 -20.119354 6.331506 -55.032202 -27.323073 5.706305 -1.376027 -23.721353 0.746115 0.000000 0.000000 0.000000 2.402729 10.609836 4.614249 69.266136 23.202983 10.384389 0.343257 37.055464 2.148049 0.000000 0.000000 0.000000 
0.025760 0.956927 -0.038672 -1.212723 -2.931786 13.960018 9.024825 -0.452568 -16.121317 2.674500 -0.500331 3.844691 -4.614975 -2.512259 14.619971 0.000000 0.000000 0.000000 -3.630800 1.504038 -17.761625 -8.610476 0.609232 -1.961080 7.332927 2.749017 23.301153 0.000000 0.000000 0.000000 2.542351 -0.760925 9.986663 -1.253957 0.602630 -3.697463 -9.094749 9.649065 1.824250 20.074263 -8.878659 -19.817807 0.000000 0.000000 0.000000 -1.906240 -19.745782 6.295909 -55.103864 -26.905745 5.667178 -0.420281 -24.214587 0.601221 0.000000 0.000000 0.000000 2.955820 10.866580 4.701514 69.962554 23.816797 10.716441 -0.153726 39.101220 2.099676 0.000000 0.000000 0.000000 
0.026456 0.956625 -0.038470 -1.416372 -3.426404 13.586404 9.471425 -0.377001 -15.718557 2.340936 -0.459829 3.983480 -4.778683 -2.782214 14.776981 0.000000 0.000000 0.000000 -3.489135 1.534866 -17.847793 -8.463682 0.656263 -1.423338 7.489979 2.802573 23.478181 0.000000 0.000000 0.000000 2.694778 -0.750957 9.580837 -1.041859 0.511476 -3.755787 -8.720217 8.845339 1.260755 18.848037 -8.159952 -19.924179 0.000000 0.000000 0.000000 -2.520084 -19.468075 6.277156 -54.913949 -27.081534 5.931863 -0.408367 -25.629955 0.660190 0.000000 0.000000 0.000000 3.262054 11.179064 4.771882 70.942845 23.455568 10.528202 -0.283107 41.796826 2.187225 0.000000 0.000000 0.000000 
0.027312 0.957301 -0.038104 -1.499814 -3.424184 13.523244 9.762162 -0.346031 -15.848872 2.012147 -0.437958 4.545474 -4.965290 -3.203097 14.496461 0.000000 0.000000 0.000000 -3.454557 1.534485 -17.798140 -8.098650 0.652692 -1.165202 6.897198 2.017369 23.121404 0.000000 0.000000 0.000000 3.017891 -0.700432 8.079542 -1.038514 0.508105 -3.431723 -8.049779 7.361243 0.839206 17.714207 -7.588487 -19.947196 0.000000 0.000000 0.000000 -2.192529 -19.505676 6.427549 -53.518378 -28.684748 6.671975 0.773173 -27.953249 0.486827 0.000000 0.000000 0.000000 2.781243 10.776047 4.408730 72.566346 22.493814 10.031047 -0.552763 45.250607 2.191156 0.000000 0.000000 0.000000 
0.028467 0.958756 -0.037533 -1.360091 -3.237646 13.211432 9.595406 -0.367775 -15.571947 1.984058 -0.447171 4.824370 -5.229346 -3.702069 14.258117 0.000000 0.000000 0.000000 -3.958099 1.447214 -17.368118 -7.842757 0.648133 -1.026183 7.297321 2.727113 23.095881 0.000000 0.000000 0.000000 3.250479 -0.627631 6.590982 -0.637840 0.340624 -3.474919 -7.928361 6.243421 0.426639 16.231550 -7.212319 -18.421418 0.000000 0.000000 0.000000 -1.505309 -19.640250 6.536640 -51.187173 -31.362097 7.603988 3.604185 -32.305028 -0.234082 0.000000 0.000000 0.000000 2.856844 10.553063 4.231855 72.979077 21.460026 9.201197 -4.353309 49.878988 0.726845 0.000000 0.000000 0.000000 
0.030210 0.960345 -0.036920 -1.202185 -2.473411 12.784876 9.174661 -0.436456 -15.044306 2.237136 -0.468905 4.446554 -5.563423 -4.068448 14.393450 0.000000 0.000000 0.000000 -4.274926 1.354930 -16.815864 -7.578451 0.627483 -1.070871 6.890369 1.850979 23.963299 0.000000 0.000000 0.000000 3.366777 -0.533453 5.070235 -0.337832 0.220154 -3.551716 -7.647906 4.781455 0.543032 15.556611 -7.047642 -17.912009 0.000000 0.000000 0.000000 0.550395 -20.132382 6.709112 -48.665099 -36.385818 9.312363 9.435857 -36.272619 -2.102935 0.000000 0.000000 0.000000 2.054531 9.545039 3.677926 73.433563 21.206670 8.919260 -10.476821 55.385003 -2.357588 0.000000 0.000000 0.000000 
0.032420 0.961607 -0.036505 -1.029810 -2.306008 12.469414 8.746875 -0.479498 -14.819968 2.141877 -0.467943 4.703396 -5.288643 -3.668835 14.207014 0.000000 0.000000 0.000000 -4.638209 1.279329 -16.275300 -7.303137 0.610924 -1.015676 6.539833 1.519211 23.553908 0.000000 0.000000 0.000000 3.342697 -0.435954 3.752415 -0.014226 0.088654 -3.743896 -7.429341 3.575369 0.169954 13.900702 -6.402928 -16.876757 0.000000 0.000000 0.000000 2.737493 -20.620331 6.802481 -46.641756 -40.754395 10.766432 19.260570 -36.756645 -5.329211 0.000000 0.000000 0.000000 1.166064 9.042396 3.364254 73.406507 21.625393 9.022199 -20.087088 58.998478 -8.052964 0.000000 0.000000 0.000000 
0.035015 0.961916 -0.036614 -0.745775 -1.699663 12.207506 8.327005 -0.536278 -14.670042 1.974191 -0.444429 4.707782 -5.335170 -3.771602 13.941631 0.000000 0.000000 0.000000 -5.162960 1.200402 -16.014335 -7.076634 0.602565 -0.952314 6.133258 0.792512 24.086472 0.000000 0.000000 0.000000 3.053970 -0.369305 3.152614 0.536851 -0.131111 -4.002228 -7.269515 2.719276 0.089763 13.847209 -6.347861 -17.118889 0.000000 0.000000 0.000000 4.842212 -21.476280 6.943066 -45.352065 -45.474258 12.427383 25.869047 -34.086011 -6.925166 0.000000 0.000000 0.000000 -0.308609 8.967190 3.254608 73.926624 23.123174 10.132732 -30.748931 60.284582 -14.523679 0.000000 0.000000 0.000000 
0.037691 0.961898 -0.037325 -0.789459 -1.802630 12.004255 8.091831 -0.548585 -14.476966 1.916915 -0.442112 4.837957 -4.889163 -3.267246 13.447936 0.000000 0.000000 0.000000 -5.134750 1.193604 -15.854324 -6.854291 0.587165 -0.901168 5.414957 -0.289407 23.916087 0.000000 0.000000 0.000000 3.067481 -0.355023 2.958843 0.685724 -0.193354 -4.038113 -7.182757 2.768721 -0.502634 13.616499 -6.307348 -16.586788 0.000000 0.000000 0.000000 6.364604 -22.595230 7.159308 -44.017542 -48.219626 13.129491 28.146241 -30.744140 -6.857805 0.000000 0.000000 0.000000 -0.697946 9.564988 3.454697 73.770129 25.344501 11.772530 -36.470820 57.746718 -16.990422 0.000000 0.000000 0.000000 
